<svg version="1.1"
	xmlns="http://www.w3.org/2000/svg"
	xmlns:xlink="http://www.w3.org/1999/xlink" width="87.99945" height="88.00142" viewBox="0,0,87.99945,88.00142">
	<!-- This icon is based on Twemoji https://twemoji.twitter.com/ -->
	<!-- License: CC-BY 4.0 https://creativecommons.org/licenses/by/4.0/ -->
	<g transform="translate(-196.67743,-136.6797)">
		<g data-paper-data="{&quot;isPaintingLayer&quot;:true}" fill-rule="nonzero" stroke="none" stroke-width="1" stroke-linecap="butt" stroke-linejoin="miter" stroke-miterlimit="10" stroke-dasharray="" stroke-dashoffset="0" style="mix-blend-mode: normal">
			<g>
				<path d="M280.76223,223.99916c-0.8271,0 -1.65684,-0.31609 -2.28903,-0.94827l-80.82711,-80.82447c-0.82993,-0.81533 -1.15854,-2.0133 -0.86075,-3.13796c0.29779,-1.12467 1.17617,-2.00305 2.30083,-2.30083c1.12467,-0.29779 2.32264,0.03081 3.13796,0.86075l80.82711,80.82711c0.9239,0.9261 1.19964,2.31724 0.69884,3.52573c-0.5008,1.2085 -1.67971,1.99682 -2.98787,1.99796z" fill="#d99e82"/>
				<path d="M229.63451,143.34853c6.98561,1.41187 8.5766,6.68796 3.53759,11.72698l-16.07586,16.07323c-5.03639,5.03902 -10.63119,3.52178 -12.43292,-3.37164l-4.85463,-18.58352c-1.80172,-6.89342 2.43917,-11.37928 9.42478,-9.9674z" fill="#66757f"/>
				<path d="M251.07602,173.26391c-0.00145,9.83714 -7.97721,17.81055 -17.81436,17.80909c-9.83714,-0.00145 -17.81055,-7.97721 -17.80909,-17.81436c0.00145,-9.83714 7.97721,-17.81055 17.81436,-17.80909c9.83714,0.00145 17.81055,7.97721 17.80909,17.81436z" fill="#d99e82"/>
				<path d="M249.59566,212.0878c-2.52873,2.52873 -6.63264,2.52873 -9.15874,0l-9.16137,-9.16137c-2.52709,-2.52995 -2.52709,-6.62879 0,-9.15874l22.89816,-22.89816c2.53026,-2.52885 6.63112,-2.52885 9.16137,0l9.16137,9.15874c2.52885,2.53026 2.52885,6.63112 0,9.16137z" fill="#ccd6dd"/>
				<path d="M280.76223,223.99916c-0.8271,0 -1.65684,-0.31609 -2.28903,-0.94827l-24.01765,-24.01765c-0.82993,-0.81533 -1.15854,-2.0133 -0.86075,-3.13796c0.29779,-1.12467 1.17617,-2.00305 2.30083,-2.30083c1.12467,-0.29779 2.32264,0.03081 3.13796,0.86075l24.01765,24.01765c0.92579,0.92586 1.20272,2.31821 0.70168,3.52786c-0.50104,1.20965 -1.68139,1.99839 -2.99071,1.99847z" fill="#d99e82"/>
			</g>
		</g>
	</g>
</svg>
