<?xml version="1.0" encoding="UTF-8"?>
<svg version="1.1" viewBox="0 0 64.45 117.73" xmlns="http://www.w3.org/2000/svg">
<g transform="translate(-209.26 -121.13)">
<g stroke-dasharray="" stroke-miterlimit="10" style="mix-blend-mode:normal" data-paper-data='{"isPaintingLayer":true}'>
<path d="m239.02 152.87c3.6912-0.64813 10.662 3.3099 11.842 10.032 1.1803 6.7218-0.85519 12.696-4.5464 13.344-3.6912 0.64813-7.6403-4.2756-8.8206-10.997-1.1803-6.7218-2.1662-11.731 1.525-12.379z" fill="#ff4c4c" stroke-width="0" data-paper-data='{"index":null}'/>
<path d="m213.58 121.45c4.2738-1.6874 3.9911 1.7352 23.391 52.097 11.03 29.471 19.761 53.619 16.55 54.627-4.6851 1.8085-12.362-22.626-23.391-52.097-16.892-48.164-21.642-52.782-16.55-54.627z" fill="#d99e82" stroke="#000" stroke-width="0" data-paper-data='{"index":null}'/>
<path d="m255.62 207.54c-3.9502 2.7461-8.1407 4.3393-12.556 4.7616-4.5508 0.43525-8.4605 0.76116-12.244-2.3874-7.4534-6.2033-8.3431-19.21-2.1917-24.55 1.4459-1.2555 3.2681-2.4537 4.5308-3.0762 1.767-0.87105 1.9199-1.0006 5.7161-1.95 6.0439-0.9383 9.9292-0.90806 14.553 2.94 7.4534 6.2033 8.4347 16.907 2.1917 24.262z" fill="#59c059" stroke="#000" stroke-width="0" data-paper-data='{"index":null}'/>
<path d="m229.22 232.91c-2.9654-5.6842-1.9555-8.1474-1.0004-12.664 1.5594-6.2696 4.5302-8.7104 11.4-10.866 2.5767-0.80831 8.9647-2.3825 12.564-2.7328 4.1961-0.35301 7.8538 0.58103 10.884 2.4543 2.72 1.6816 3.5178 2.182 7.3315 6.9082 3.0362 4.4789 5.1985 11.436 0.86746 16.906-4.1695 5.2657-12.764 5.9533-21.517 5.9533-9.6455 0-17.418-0.62903-20.53-5.959z" fill="#96f" stroke="#000" stroke-width="0" data-paper-data='{"index":null}'/>
<path d="m244.96 164.03" stroke="#000" stroke-width="0" data-paper-data='{"index":null}'/>
<path d="m247.6 163.36c1.8848 4.8093 7.7592 2.3902 6.8071 5.4969-0.31508 1.0281 1.5532 6.8103-0.06215 8.5221-3.0092 3.189-9.8566 3.5414-12.566 4.6031-8.5579 3.3538-20.042 3.085-23.712-6.2809-3.6705-9.3659-2.1996-16.246 7.0287-20.63 8.3025-3.9439 18.834-1.0773 22.504 8.2886z" fill="#ff8c1a" stroke-width="0"/>
<path d="m222.75 169.82c1.7972 6.5838 0.32326 12.721-3.2921 13.708-3.6154 0.9869-8.0031-3.5503-9.8003-10.134s2.8215-13.135 6.4369-14.122c3.6154-0.9869 4.8583 3.9644 6.6555 10.548z" fill="#ff8c1a" stroke-width="0"/>
<path d="m247.6 163.36c0.52262 1.3335 1.352 2.1113 2.2575 2.6052 0.23688 0.12921 0.72214 0.33421 0.72214 0.33421s-32.918 8.3313-33.095 7.8084c-2.8929-8.5567-1.0857-14.905 7.6112-19.037 8.3025-3.9439 18.834-1.0773 22.504 8.2886z" fill="#ff4c4c" stroke-width="0"/>
<path d="m222.75 169.82c0.07439 0.27252 0.20644 0.81494 0.20644 0.81494l-13.046 3.6194s-0.17368-0.56945-0.25307-0.86031c-1.7972-6.5837 2.8215-13.135 6.4369-14.122 3.6154-0.9869 4.8583 3.9644 6.6555 10.548z" fill="#ff4c4c" stroke-width="0"/>
<path d="m232.66 170.44c-1.4115 0-2.5557-1.1442-2.5557-2.5557s1.1442-2.5557 2.5557-2.5557 2.5557 1.1442 2.5557 2.5557-1.1442 2.5557-2.5557 2.5557z" stroke="#000" stroke-width="1.5" data-paper-data='{"index":null}'/>
<path d="m246.4 164.62c0 1.3706-0.22211 1.7408-1.5927 1.7408-0.68528 0-0.93531-0.35186-1.3844-0.80094-0.44908-0.44908-0.80093-0.99542-0.80093-1.6807 0-1.3706-0.07421-1.7408 1.2964-1.7408 1.3706 0 2.4816 1.1111 2.4816 2.4816z" stroke="#000" stroke-width="1.5" data-paper-data='{"index":null}'/>
<path d="m225.29 201.04c-1.6264-5.8532-0.5536-12.304 3.3396-15.683 1.4459-1.2555 3.2681-2.4537 4.5308-3.0762 1.767-0.87105 1.9199-1.0006 5.7161-1.95 6.0439-0.9383 9.9292-0.90806 14.553 2.94 3.5299 2.9378 5.6081 6.885 6.1548 11.008 0.05334 0.40227-34.163 7.2351-34.294 6.7617z" fill="#ffbf00" stroke="#000" stroke-width="0" data-paper-data='{"index":null}'/>
<path d="m227.48 223.73c0.18784-1.0789 0.46539-2.2024 0.73846-3.4937 1.5594-6.2696 4.5302-8.7104 11.4-10.866 2.5767-0.80831 8.9647-2.3825 12.564-2.7328 4.1961-0.35301 7.8538 0.58103 10.884 2.4543 2.72 1.6816 3.5178 2.182 7.3315 6.9082 0.84018 1.2394 1.4884 2.4186 2.0757 3.9535 0.14353 0.37514-45.06 4.1559-44.994 3.7765z" fill="#4c97ff" stroke="#000" stroke-width="0" data-paper-data='{"index":null}'/>
</g>
</g>
</svg>
