<?xml version="1.0" encoding="UTF-8"?>
<svg version="1.1" viewBox="0 0 26 26" xmlns="http://www.w3.org/2000/svg">
<g transform="translate(-334.5,-159)">
<g stroke-dasharray="" stroke-miterlimit="10" style="mix-blend-mode:normal" data-paper-data='{"isPaintingLayer":true}'>
<path d="m334.5 172c0-7.1797 5.8203-13 13-13s13 5.8203 13 13-5.8203 13-13 13-13-5.8203-13-13z" fill="#e5f0ff" stroke-width="0"/>
<g>
<path d="m357.46 178.85c-1.4976 1.564-2.6453 2.8522-4.9055 3.5901h-9.1524l-0.16031-0.06905c-0.74418-0.33889-1.548-0.65739-2.2893-1.0632l-0.00402-0.05258-0.07978 0.00617c-0.08303-0.04652-0.16521-0.0942-0.24635-0.1432-0.17926-0.8849-0.68366-1.5703-1.4448-2.2682z" fill="#96f"/>
<path d="m337.18 175.31h20.639v2.7396l-0.29032 0.70102 0.01692 0.00709c-0.0717 0.07469-0.14255 0.14877-0.2127 0.22221h-18.008c-0.29113-0.27896-0.62407-0.55771-0.99446-0.84983l-0.02545-0.00848 0.00421-0.00635-0.74719-0.50117c-0.10905-0.07547-0.24016-0.121-0.38161-0.12479z" fill="#4c97ff"/>
<path d="m357.82 175.52h-20.639v-3.5901h20.639z" fill="#59c059"/>
<path d="m357.82 172.07h-20.639v-3.5901h20.639z" fill="#ffbf00"/>
<path d="m357.82 168.61h-20.639v-2.5856c0.33055-0.13015 0.41896-0.5156 0.41896-0.5156 0.02389-0.15997 0.10181-0.32389 0.2211-0.48893h18.773c0.02874 0.03943 0.05753 0.07888 0.0864 0.11832l-0.14574 0.06843 0.43384 0.93534c0.10967 0.25062 0.35869 0.4256 0.64834 0.4256 0.07062 0 0.13882-0.0104 0.20317-0.02976z" fill="#ff8c1a"/>
<path d="m337.74 165.15c0.03417-0.05782 0.07386-0.11587 0.11853-0.17402 0.68173 0.12714 0.81865-0.56164 0.81865-0.56164l0.04421-0.22427c0.98533-0.71077 2.3604-1.3499 3.0284-1.6726h0.63872c0.39104 0 0.70805-0.31894 0.70805-0.71237 0-0.03726-0.00284-0.07385-0.00832-0.10957h8.8431c0.04993 0.03462 0.1045 0.06297 0.16258 0.08389l0.80276 0.31064 0.01026-0.02684 0.05767 0.04924c1.8093 0.28229 2.7178 1.6613 3.7184 3.0282l-0.01987 0.00933z" fill="#ff4c4c"/>
</g>
<path d="m335.98 172c0-6.3619 5.1574-11.519 11.519-11.519s11.519 5.1574 11.519 11.519-5.1574 11.519-11.519 11.519-11.519-5.1574-11.519-11.519z" fill="none" stroke="#e5f0ff" stroke-width="2.5"/>
</g>
</g>
</svg>
