<svg xmlns="http://www.w3.org/2000/svg" width="501.099" height="500.86"><path d="M25.6.908c1.4.6 5.7 4 9.4 7.6l6.8 6.5 6.3-2.2c4.9-1.8 9.2-2.4 18.9-2.7l12.5-.3 57 11.5 64.2 13c27.6 5.9 44.6 20.7 48.4 42 1.3 7.5.2 17.6-2.6 24.3-.9 2-1.4 3.7-1.3 3.8.2.1 3.5 1.3 7.3 2.5 35.3 11.5 62.7 38.4 74.6 73l2.2 6.6 7.6-3.8c15.7-7.7 32.2-7.3 49.1 1.2 5.9 3 63.8 60.2 69.1 68.4 5.6 8.4 8.1 17.1 8.2 28.1 0 10.3-1.9 18.2-6.5 26.5-2.2 3.8-11.9 14.3-31.7 34.3l-28.5 28.7 51.1 51.3c28.2 28.1 51.7 52.5 52.2 54 3.3 8.7-.5 19.9-7.9 23.7-4.3 2.2-12.1 2.6-16.7.9-1.5-.5-25.9-24-54-52.2l-51.3-51.1-27.7 27.6c-23.1 22.8-28.9 28.1-34 30.7-16.9 8.4-35.3 8.2-51.3-.6-5.1-2.9-12.5-9.6-35-32-28.4-28.3-32.9-33.3-36.8-40.8-7.3-14.4-7-36.6.6-49l1.8-3-6.5-2c-3.7-1.2-10.3-4-14.9-6.3-30.6-15.3-53.8-44-60.9-75.4l-1.8-7.7H94c-15.3 0-26-4.8-36.5-16.3-9.8-10.9-11.8-16.3-28-78l-16.2-63c-1.9-9-1.3-26.1 1.2-33.1l1.6-4.9-7-7.3c-7.9-8.1-9.1-10.4-9.1-17.6 0-7.8 4.5-14.7 11-17.2 2.6-.9 11.7-.8 14.6.3zm43.8 40.1c-10.6.2-19.1 4.7-22.8 12.1-5 10-4.5 12.9 12.3 77.5 9.1 34.8 16.1 59.4 17.8 62.8 3 6.3 9 12.1 13.4 13 3.9.9 10.6-.3 12.4-2.2.8-.8 1.5-2.6 1.5-4.1 0-4.4 4.8-20.8 8.5-29.4 14.9-34.6 50-61.4 87.3-66.8 7.3-1.1 8.5-1.6 10.9-4.4 3.5-4.1 7.3-12.4 7.3-15.9 0-6.4-6.5-13.1-15.8-16.1-2.6-.9-32.7-7.2-66.8-14.1l-66-12.4zm140.1 92.5c-22.3 3.3-37.9 10.9-52.1 25.6-3.9 4-8.7 9.8-10.7 13-17.7 27.7-17.4 64.4.7 91.7 5.6 8.4 18.3 20.7 26.2 25.3 11.7 6.9 27 11.8 36.9 11.8h5l42.9-42.9 43-43-.3-4.8c-.6-12.2-6-27.9-13.5-39.1-11.5-17.4-30.1-30.5-50.1-35.2-8.1-2-22.5-3.2-28-2.4zm142 77.3c-2.7 1.3-25.4 23.4-71.2 69.2-60.9 61.2-67.3 67.8-68.3 71.8-1.6 6-.5 12 3 17.2 4 6.1 54.7 56.2 59 58.4 4.9 2.5 13.4 2.4 18.5-.3 2.4-1.2 30-28.2 70.6-68.9 70-70.2 68.9-69 68.9-77.4 0-7.9-1.2-9.4-30.8-39.3-18.7-18.7-30.1-29.5-32.7-30.7-5.1-2.4-11.9-2.4-17 0z" fill="#fff"/></svg>
