<!-- From https://www.svgrepo.com/svg/445482/warning-solid -->
<svg version="1.1" xmlns="http://www.w3.org/2000/svg" xmlns:xlink="http://www.w3.org/1999/xlink" width="24" height="24" viewBox="0,0,24,24"><g transform="translate(-228,-168)"><g data-paper-data="{&quot;isPaintingLayer&quot;:true}" fill-rule="nonzero" stroke="none" stroke-width="1" stroke-linecap="butt" stroke-linejoin="miter" stroke-miterlimit="10" stroke-dasharray="" stroke-dashoffset="0" style="mix-blend-mode: normal"><path d="M228,168h24v24h-24z" fill="none"/><path d="M250.86983,189.4917c-0.175,0.30882 -0.5004,0.50194 -0.85531,0.5076h-20.02904c-0.35491,-0.00566 -0.68031,-0.19878 -0.85531,-0.5076c-0.175,-0.30882 -0.17345,-0.68721 0.00407,-0.99458l10.01453,-18.02614c0.19482,-0.2937 0.52382,-0.47027 0.87627,-0.47027c0.35245,0 0.68145,0.17657 0.87627,0.47027l9.96445,18.02614c0.17752,0.30738 0.17907,0.68576 0.00407,0.99458zM241.00145,185.49276c0,-0.55308 -0.44837,-1.00145 -1.00145,-1.00145c-0.55308,0 -1.00145,0.44836 -1.00145,1.00145c0,0.55308 0.44837,1.00145 1.00145,1.00145c0.55308,0 1.00145,-0.44837 1.00145,-1.00145zM241.00145,177.98187c0,-0.55308 -0.44837,-1.00145 -1.00145,-1.00145c-0.55308,0 -1.00145,0.44836 -1.00145,1.00145v4.50654c0,0.55308 0.44837,1.00145 1.00145,1.00145c0.55308,0 1.00145,-0.44836 1.00145,-1.00145z" fill="#ffffff"/></g></g></svg>
