<svg version="1.1" xmlns="http://www.w3.org/2000/svg" xmlns:xlink="http://www.w3.org/1999/xlink" width="19.40028" height="19.40028" viewBox="0,0,19.40028,19.40028"><g transform="translate(-230.09972,-170.09972)"><g data-paper-data="{&quot;isPaintingLayer&quot;:true}" stroke-miterlimit="10" stroke-dasharray="" stroke-dashoffset="0" style="mix-blend-mode: normal"><path d="M230.09973,170.09973h19.40028v19.40028h-19.40028z" fill-opacity="0" fill="#000000" fill-rule="nonzero" stroke="none" stroke-width="0.97002" stroke-linecap="butt" stroke-linejoin="miter"/><g fill-rule="evenodd"><path d="M233.70981,179.48901c0,-0.73991 0.59982,-1.33977 1.33977,-1.33977h8.16134c0.35532,0 0.69608,0.14117 0.94738,0.39241c0.25125,0.25125 0.39241,0.59203 0.39241,0.94738v5.35883c0,0.73991 -0.59983,1.33977 -1.33977,1.33977h-8.16134c-0.73991,0 -1.33977,-0.59982 -1.33977,-1.33977z" fill="#ffffff" stroke="none" stroke-width="1" stroke-linecap="square" stroke-linejoin="miter"/><path d="M233.70981,179.48901c0,-0.73991 0.59982,-1.33977 1.33977,-1.33977h8.16134c0.35532,0 0.69608,0.14117 0.94738,0.39241c0.25125,0.25125 0.39241,0.59203 0.39241,0.94738v5.35883c0,0.73991 -0.59983,1.33977 -1.33977,1.33977h-8.16134c-0.73991,0 -1.33977,-0.59982 -1.33977,-1.33977z" fill="none" stroke="#ffffff" stroke-width="0.5" stroke-linecap="butt" stroke-linejoin="round"/><path d="M233.70981,176.20983c0,-1.38163 1.13434,-2.50172 2.53364,-2.50172c0.67193,0 1.31645,0.26356 1.79154,0.73271c0.47515,0.46916 0.74211,1.10552 0.74211,1.76892c0,1.38163 -1.13435,2.50172 -2.53364,2.50172c-1.39929,0 -2.53365,-1.12 -2.53365,-2.50172z" fill="#ffffff" stroke="none" stroke-width="1" stroke-linecap="square" stroke-linejoin="miter"/><path d="M233.72573,176.20983c0,-1.38163 1.13435,-2.50172 2.53364,-2.50172c0.67193,0 1.31644,0.26356 1.79154,0.73271c0.47515,0.46916 0.74212,1.10552 0.74212,1.76892c0,1.38163 -1.13435,2.50172 -2.53365,2.50172c-1.39929,0 -2.53365,-1.12 -2.53365,-2.50172z" fill="none" stroke="#ffffff" stroke-width="0.5" stroke-linecap="butt" stroke-linejoin="round"/><path d="M238.2545,175.46167c0,-1.79693 1.40909,-3.2537 3.14721,-3.2537c0.83468,0 1.6352,0.3428 2.22546,0.95296c0.59022,0.61018 0.92184,1.43775 0.92184,2.30068c0,1.79693 -1.4091,3.2537 -3.14722,3.2537c-1.73812,0 -3.1472,-1.45669 -3.1472,-3.2537z" fill="#ffffff" stroke="none" stroke-width="1" stroke-linecap="square" stroke-linejoin="miter"/><path d="M238.2545,175.46167c0,-1.79693 1.40909,-3.2537 3.14721,-3.2537c0.83468,0 1.6352,0.3428 2.22546,0.95296c0.59022,0.61018 0.92184,1.43775 0.92184,2.30068c0,1.79693 -1.4091,3.2537 -3.14722,3.2537c-1.73812,0 -3.1472,-1.45669 -3.1472,-3.2537z" fill="none" stroke="#ffffff" stroke-width="0.5" stroke-linecap="butt" stroke-linejoin="round"/><path d="M246.92203,185.10022l-3.95428,-2.93327l3.95428,-2.93327z" fill="#ffffff" stroke="none" stroke-width="1" stroke-linecap="square" stroke-linejoin="miter"/><path d="M246.92203,185.10022l-3.95428,-2.93327l3.95428,-2.93327z" fill="none" stroke="#ffffff" stroke-width="0.5" stroke-linecap="butt" stroke-linejoin="round"/></g></g></g></svg>
