<?xml version="1.0" encoding="UTF-8"?>
<svg version="1.1" viewBox="0 0 14.145 12.917" xmlns="http://www.w3.org/2000/svg">
<g transform="translate(-234.63 -174.01)">
<g fill="#855cd6" fill-rule="evenodd" stroke-dasharray="" stroke-miterlimit="10" style="mix-blend-mode:normal" data-paper-data='{"isPaintingLayer":true}'>
<path d="m236.21 174.42 4.162-0.40862c0.54014-0.05826 0.95111 0.46248 0.77555 0.98269l-1.3713 3.9446c-0.1875 0.55689-0.9186 0.68407-1.2832 0.22212l-0.79544-1.0079c-1.4434 1.4526-1.6108 3.7793-0.31758 5.418 0.62041 0.78612 1.4747 1.2835 2.388 1.4714 1.1446 0.23544 1.3351 2.167-0.31574 1.8459-1.3531-0.26317-2.6225-0.99201-3.5421-2.1573-1.9356-2.4525-1.6289-5.9672 0.62077-8.0562l-0.83521-1.0583c-0.36457-0.46195-0.07097-1.1435 0.51425-1.1964" data-paper-data='{"index":null}'/>
<path d="m247.2 174.42c0.58522 0.05294 0.87882 0.73446 0.51425 1.1964l-0.83521 1.0583c2.2497 2.089 2.5563 5.6037 0.62077 8.0562-0.91963 1.1652-2.189 1.8941-3.5421 2.1573-1.6509 0.32109-1.4604-1.6105-0.31574-1.8459 0.91329-0.18785 1.7676-0.68524 2.388-1.4714 1.2932-1.6387 1.1258-3.9653-0.31758-5.418l-0.79544 1.0079c-0.36458 0.46195-1.0957 0.33476-1.2832-0.22212l-1.3713-3.9446c-0.17556-0.52021 0.23542-1.041 0.77555-0.98269l4.162 0.40862" data-paper-data='{"index":null}'/>
</g>
</g>
</svg>
