<?xml version="1.0" encoding="UTF-8"?>
<svg width="20px" height="20px" viewBox="0 0 20 20" version="1.1"
	xmlns="http://www.w3.org/2000/svg"
	xmlns:xlink="http://www.w3.org/1999/xlink">
	<defs></defs>
	<g id="looking-active" stroke="none" stroke-width="1" fill="none" fill-rule="evenodd">
		<path d="M 4.715 3.5 L 8.7402 3.0914 C 9.2803 3.0331 9.6913 3.5539 9.5157 4.0741 L 8.1444 8.0187 C 7.9569 8.5756 7.2258 8.7028 6.8612 8.2408 L 6.0658 7.2329 C 4.6224 8.6855 4.455 11.0122 5.7482 12.6509 C 6.3686 13.437 7.2229 13.9344 8.1362 14.1223 C 9.2808 14.3577 9.4713 16.2893 7.8205 15.9682 C 6.4674 15.705 5.198 14.9762 4.2784 13.8109 C 2.3428 11.3584 2.6495 7.8437 4.8992 5.7547 L 4.064 4.6964 C 3.6994 4.2344 3.993 3.5529 4.5782 3.5 M 15.4182 3.5 C 16.0034 3.5529 16.297 4.2345 15.9324 4.6964 L 15.0972 5.7547 C 17.3469 7.8437 17.6535 11.3584 15.718 13.8109 C 14.7984 14.9761 13.529 15.705 12.1759 15.9682 C 10.525 16.2893 10.7155 14.3577 11.8602 14.1223 C 12.7735 13.9345 13.6278 13.4371 14.2482 12.6509 C 15.5414 11.0122 15.374 8.6856 13.9306 7.2329 L 13.1352 8.2408 C 12.7706 8.7028 12.0395 8.5756 11.852 8.0187 L 10.4807 4.0741 C 10.3051 3.5539 10.7161 3.0331 11.2562 3.0914 L 15.4182 3.5" id="Rotate" fill="#855CD6"></path>
	</g>
</svg>
