<svg version="1.1" xmlns="http://www.w3.org/2000/svg" xmlns:xlink="http://www.w3.org/1999/xlink" width="21.60001" height="55.4" viewBox="0,0,21.60001,55.4"><g transform="translate(-229.2,-152.3)"><g data-paper-data="{&quot;isPaintingLayer&quot;:true}" fill-rule="nonzero" stroke-width="0" stroke-linecap="butt" stroke-linejoin="miter" stroke-miterlimit="10" stroke-dasharray="" stroke-dashoffset="0" style="mix-blend-mode: normal"><path d="M229.2,207.7v-55.4h21.60001v55.4z" fill="#e60505" stroke="#000000"/><path d="M229.2,207.7v-13.56666h21.60001v13.56667z" fill="#409042" stroke="#000000"/><path d="M229.2,207.7v-8.9h21.60001v8.9z" fill="#004a02" stroke="#000000"/><path d="M235.33858,158.764c-0.6248,1.47473 -1.79775,2.38788 -2.61987,2.03957c-0.82212,-0.34831 -0.98208,-1.82617 -0.35728,-3.3009c0.6248,-1.47473 1.79775,-2.38788 2.61987,-2.03957c0.82212,0.34831 0.98208,1.82617 0.35728,3.3009z" fill="#000000" stroke="none"/><path d="M240.44633,165.45234c-0.55841,-1.51841 -1.76311,-2.51905 -2.69076,-2.235c-0.92765,0.28405 -1.22698,1.74524 -0.66857,3.26365c0.55841,1.51841 1.7631,2.51906 2.69075,2.235c0.92765,-0.28405 1.22699,-1.74524 0.66858,-3.26365z" fill="#000000" stroke="none"/><path d="M235.51029,177.72347c-0.91488,1.31461 -2.25064,1.96686 -2.98349,1.45684c-0.73286,-0.51002 -0.5853,-1.98917 0.32958,-3.30378c0.91488,-1.31461 2.25063,-1.96686 2.98349,-1.45684c0.73286,0.51002 0.5853,1.98918 -0.32958,3.30379z" fill="#000000" stroke="none"/><path d="M246.86795,187.07704c0.55112,1.50382 0.31827,2.97197 -0.52006,3.2792c-0.83834,0.30723 -1.96471,-0.6628 -2.51582,-2.16662c-0.55112,-1.50382 -0.31828,-2.97197 0.52006,-3.2792c0.83834,-0.30723 1.96471,0.6628 2.51583,2.16662z" fill="#000000" stroke="none"/><path d="M245.25764,175.42842c-0.78768,1.39455 -2.05645,2.16908 -2.83387,1.72997c-0.77742,-0.43911 -0.7691,-1.92558 0.01859,-3.32013c0.78768,-1.39455 2.05645,-2.16908 2.83387,-1.72997c0.77742,0.43911 0.7691,1.92559 -0.01858,3.32013z" fill="#000000" stroke="none"/><path d="M236.13703,189.34071c-0.7008,1.44017 -1.91975,2.29095 -2.7226,1.90028c-0.80285,-0.39067 -0.88558,-1.87487 -0.18479,-3.31504c0.7008,-1.44017 1.91975,-2.29095 2.7226,-1.90028c0.80285,0.39067 0.88559,1.87487 0.18479,3.31504z" fill="#000000" stroke="none"/><path d="M247.38575,159.65978c-0.85178,1.35635 -2.15525,2.07094 -2.91137,1.5961c-0.75612,-0.47484 -0.67858,-1.95932 0.1732,-3.31566c0.85178,-1.35635 2.15524,-2.07095 2.91137,-1.5961c0.75612,0.47484 0.67858,1.95932 -0.1732,3.31566z" fill="#000000" stroke="none"/></g></g></svg>